<svg width="256" height="256" viewBox="0 0 344 464" xmlns="http://www.w3.org/2000/svg"><rect x="0" y="0" width="344" height="464" rx="8" fill="none"/><svg xmlns="http://www.w3.org/2000/svg" viewBox="0 0 344 464" fill="#ffffff" x="0" y="0" width="344" height="464"><path fill="#ffffff" d="M226.5 85Q209 85 196 72.5t-13-30t13-30T226.5 0t30 12.5t12.5 30t-12.5 30t-30 12.5zM149 381L0 352l9-43l104 21l34-173l-38 15v73H66V145l111-47q3 0 8.5-1t8.5-1q22 0 36 21l22 34q13 23 37.5 37t53.5 14v43q-71 0-117-53l-13 64l45 42v160h-43V330l-44-42z"/></svg></svg>